<?xml version="1.0" encoding="UTF-8" standalone="no"?>
<!-- Created with Inkscape (http://www.inkscape.org/) -->

<svg
   xmlns:dc="http://purl.org/dc/elements/1.1/"
   xmlns:cc="http://creativecommons.org/ns#"
   xmlns:rdf="http://www.w3.org/1999/02/22-rdf-syntax-ns#"
   xmlns:svg="http://www.w3.org/2000/svg"
   xmlns="http://www.w3.org/2000/svg"
   version="1.1"
   width="200"
   height="87.14386"
   id="svg3175">
  <defs
     id="defs3177" />
  <metadata
     id="metadata3180">
    <rdf:RDF>
      <cc:Work
         rdf:about="">
        <dc:format>image/svg+xml</dc:format>
        <dc:type
           rdf:resource="http://purl.org/dc/dcmitype/StillImage" />
        <dc:title></dc:title>
      </cc:Work>
    </rdf:RDF>
  </metadata>
  <g
     transform="matrix(6.8127279,0,0,6.8127279,-327.72703,-5340.9425)"
     id="g4609" />
  <path
     d="m 173.17488,0.0261 c -14.82741,0 -26.73996,11.9977 -26.73996,26.82511 l 0,33.55269 c 0,14.82741 11.91255,26.73996 26.73996,26.73996 C 188.00232,87.14386 200,75.23131 200,60.4039 l 0,-3.06573 -14.81768,0 0,0.34064 c 0,6.60494 -5.31734,11.92227 -11.92228,11.92227 -6.60494,0 -11.92227,-5.31733 -11.92227,-11.92227 l 0,-28.18766 c 0,-6.60494 5.31733,-11.92228 11.92227,-11.92228 6.60494,0 11.92228,5.31734 11.92228,11.92228 l 0,4.00247 14.81768,0 0,-6.64241 C 200,12.0238 188.00232,0.0261 173.17488,0.0261 z M 26.739957,0 C 11.912545,0 0,11.99771 0,26.82512 L 0,60.3778 c 0,14.82741 11.912545,26.73996 26.739957,26.73996 14.827411,0 26.739955,-11.91255 26.739955,-26.73996 l 0,-33.55268 C 53.479912,11.99771 41.567368,0 26.739957,0 z m 0,17.54278 c 6.60494,0 11.922274,5.31733 11.922274,11.92227 l 0,28.18766 c 0,6.60494 -5.317334,11.92228 -11.922274,11.92228 -6.60494,0 -11.922274,-5.31734 -11.922274,-11.92228 l 0,-28.18766 c 0,-6.60494 5.317334,-11.92227 11.922274,-11.92227 z M 101.55609,0.02611 c -14.82741,0 -26.739958,11.99771 -26.739958,26.82512 l 0,10.90036 c 0.25616,0.0883 0.513628,0.1537 0.766432,0.25534 l 14.051252,5.6205 0,-14.13641 c 0,-0.14361 0.08017,-0.2833 0.08516,-0.42579 -0.006,-0.14116 0.0016,-0.28428 0,-0.4258 -0.024,-2.12279 0.406176,-4.26398 1.447704,-6.30177 3.555072,-6.95566 12.27735,-9.77003 19.58659,-6.38693 l 17.37246,8.00495 C 126.68688,10.50027 115.39977,0.02597 101.55609,0.02597 z m 11.92227,48.20005 0,9.45266 c 0,0.97449 -0.12208,1.90476 -0.34063,2.81025 -0.0286,1.64511 -0.52257,3.36072 -1.44771,4.93923 -3.37764,5.7631 -11.705352,8.16808 -18.64984,5.36502 L 74.986452,63.46963 c 1.526076,13.35774 12.790188,23.67423 26.569638,23.67423 14.82741,0 26.73996,-11.91255 26.73996,-26.73996 l 0,-5.36502 -14.81769,-6.81273 z"
     id="rect3904-8-1-8-0-7"
     style="fill:#000000;fill-opacity:1;stroke:none" />
</svg>
